<svg width="24" height="24" viewBox="0 0 24 24" fill="none" xmlns="http://www.w3.org/2000/svg">
<g clip-path="url(#clip0_592_42)">
<path d="M17.6399 21.75H6.38993C5.76405 21.7499 5.14646 21.6068 4.58428 21.3317C4.0221 21.0566 3.53017 20.6567 3.14601 20.1626C2.76186 19.6685 2.49563 19.0932 2.36763 18.4805C2.23963 17.8679 2.25324 17.2341 2.40743 16.6275L4.68743 7.31999C4.72849 7.15358 4.82531 7.00626 4.96177 6.90255C5.09824 6.79884 5.2661 6.745 5.43743 6.74999H17.9999C18.1654 6.74242 18.3287 6.78981 18.4643 6.88478C18.6 6.97975 18.7004 7.11696 18.7499 7.27499L21.5849 16.395C21.7788 17.0144 21.8234 17.6709 21.7152 18.3109C21.607 18.9509 21.3491 19.5562 20.9624 20.0775C20.5821 20.601 20.0821 21.026 19.5041 21.3169C18.9261 21.6078 18.287 21.7563 17.6399 21.75ZM5.99993 8.24999L3.83243 16.9875C3.73591 17.373 3.72817 17.7754 3.80981 18.1643C3.89144 18.5532 4.06032 18.9185 4.3037 19.2327C4.54708 19.5468 4.85861 19.8016 5.2148 19.9779C5.57099 20.1541 5.96254 20.2471 6.35993 20.25H17.6099C18.0181 20.2506 18.4206 20.1545 18.7843 19.9693C19.1481 19.7842 19.4628 19.5154 19.7024 19.185C19.949 18.8527 20.1136 18.4669 20.1826 18.0589C20.2517 17.6509 20.2234 17.2324 20.0999 16.8375L17.4599 8.24999H5.99993Z" fill="#F5F5F5"/>
<path d="M15 12.75C14.8011 12.75 14.6103 12.671 14.4697 12.5303C14.329 12.3897 14.25 12.1989 14.25 12V6C14.25 5.40326 14.0129 4.83097 13.591 4.40901C13.169 3.98705 12.5967 3.75 12 3.75C11.4033 3.75 10.831 3.98705 10.409 4.40901C9.98705 4.83097 9.75 5.40326 9.75 6V12C9.75 12.1989 9.67098 12.3897 9.53033 12.5303C9.38968 12.671 9.19891 12.75 9 12.75C8.80109 12.75 8.61032 12.671 8.46967 12.5303C8.32902 12.3897 8.25 12.1989 8.25 12V6C8.25 5.00544 8.64509 4.05161 9.34835 3.34835C10.0516 2.64509 11.0054 2.25 12 2.25C12.9946 2.25 13.9484 2.64509 14.6517 3.34835C15.3549 4.05161 15.75 5.00544 15.75 6V12C15.75 12.1989 15.671 12.3897 15.5303 12.5303C15.3897 12.671 15.1989 12.75 15 12.75Z" fill="#F5F5F5"/>
</g>
<defs>
<clipPath id="clip0_592_42">
<rect width="24" height="24" fill="white"/>
</clipPath>
</defs>
</svg>
