<svg width="24" height="24" viewBox="0 0 24 24" fill="none" xmlns="http://www.w3.org/2000/svg">
<g clip-path="url(#clip0_592_84)">
<path d="M17.64 21.7501H6.38999C5.76411 21.7499 5.14652 21.6069 4.58434 21.3318C4.02216 21.0567 3.53023 20.6568 3.14607 20.1627C2.76192 19.6686 2.49569 19.0932 2.36769 18.4806C2.23969 17.8679 2.2533 17.2341 2.40749 16.6276L4.68749 7.32005C4.72855 7.15365 4.82537 7.00632 4.96184 6.90261C5.0983 6.7989 5.26616 6.74506 5.43749 6.75005H18C18.1654 6.74248 18.3287 6.78987 18.4644 6.88484C18.6001 6.97981 18.7005 7.11702 18.75 7.27505L21.585 16.3951C21.7788 17.0145 21.8235 17.671 21.7153 18.3109C21.6071 18.9509 21.3491 19.5562 20.9625 20.0776C20.5822 20.6011 20.0822 21.026 19.5042 21.317C18.9262 21.6079 18.287 21.7564 17.64 21.7501ZM5.99999 8.25005L3.83249 16.9876C3.73597 17.3731 3.72823 17.7754 3.80987 18.1644C3.8915 18.5533 4.06038 18.9186 4.30376 19.2327C4.54714 19.5469 4.85867 19.8017 5.21486 19.9779C5.57105 20.1541 5.9626 20.2472 6.35999 20.2501H17.61C18.0182 20.2507 18.4206 20.1545 18.7844 19.9694C19.1482 19.7842 19.4628 19.5154 19.7025 19.1851C19.9491 18.8528 20.1136 18.4669 20.1827 18.059C20.2518 17.651 20.2234 17.2325 20.1 16.8376L17.46 8.25005H5.99999Z" fill="#F5F5F5"/>
<path d="M15 12.75C14.8011 12.75 14.6103 12.671 14.4697 12.5303C14.329 12.3897 14.25 12.1989 14.25 12V6C14.25 5.40326 14.0129 4.83097 13.591 4.40901C13.169 3.98705 12.5967 3.75 12 3.75C11.4033 3.75 10.831 3.98705 10.409 4.40901C9.98705 4.83097 9.75 5.40326 9.75 6V12C9.75 12.1989 9.67098 12.3897 9.53033 12.5303C9.38968 12.671 9.19891 12.75 9 12.75C8.80109 12.75 8.61032 12.671 8.46967 12.5303C8.32902 12.3897 8.25 12.1989 8.25 12V6C8.25 5.00544 8.64509 4.05161 9.34835 3.34835C10.0516 2.64509 11.0054 2.25 12 2.25C12.9946 2.25 13.9484 2.64509 14.6517 3.34835C15.3549 4.05161 15.75 5.00544 15.75 6V12C15.75 12.1989 15.671 12.3897 15.5303 12.5303C15.3897 12.671 15.1989 12.75 15 12.75Z" fill="#F5F5F5"/>
<path d="M5.5 7.5H18L18.5 9.5L19.5 12.5L20.5 15.5L21 17.5V18.5L20.5 19.5L19 21H8.5H5.5L4.5 20.5L3.5 19.5L3 18L4 13L5.5 7.5Z" fill="#F5F5F5" stroke="#F5F5F5"/>
</g>
<defs>
<clipPath id="clip0_592_84">
<rect width="24" height="24" fill="white"/>
</clipPath>
</defs>
</svg>
