<svg width="321" height="64" viewBox="0 0 321 64" fill="none" xmlns="http://www.w3.org/2000/svg">
<rect width="321" height="64" rx="24" fill="#9E090F"/>
<path d="M242.966 45.544C241.894 45.544 240.894 45.408 239.966 45.136C239.054 44.88 238.254 44.488 237.566 43.96C236.878 43.448 236.342 42.8 235.958 42.016C235.574 41.248 235.382 40.352 235.382 39.328C235.382 38.96 235.414 38.528 235.478 38.032C235.542 37.536 235.662 36.976 235.838 36.352C236.014 35.712 236.278 35 236.63 34.216L239.582 35.248C239.406 35.744 239.254 36.2 239.126 36.616C238.998 37.016 238.902 37.392 238.838 37.744C238.774 38.08 238.742 38.416 238.742 38.752C238.742 39.392 238.91 39.968 239.246 40.48C239.598 41.008 240.094 41.424 240.734 41.728C241.39 42.032 242.166 42.184 243.062 42.184C243.926 42.184 244.67 42.096 245.294 41.92C245.918 41.744 246.43 41.48 246.83 41.128C247.246 40.792 247.55 40.376 247.742 39.88C247.934 39.368 248.03 38.784 248.03 38.128C248.03 37.44 247.902 36.632 247.646 35.704C247.39 34.776 247.102 33.752 246.782 32.632L250.142 31.768C250.302 32.376 250.43 32.904 250.526 33.352C250.638 33.784 250.726 34.144 250.79 34.432C250.87 34.704 250.942 34.92 251.006 35.08C251.134 35.416 251.318 35.704 251.558 35.944C251.798 36.168 252.15 36.36 252.614 36.52C253.094 36.664 253.734 36.776 254.534 36.856C255.334 36.92 256.366 36.952 257.63 36.952C258.686 36.952 259.598 36.92 260.366 36.856C261.15 36.776 261.806 36.672 262.334 36.544C262.878 36.4 263.31 36.232 263.63 36.04C263.966 35.848 264.206 35.632 264.35 35.392C264.51 35.136 264.59 34.864 264.59 34.576C264.59 34.288 264.518 34.008 264.374 33.736C264.246 33.464 264.03 33.24 263.726 33.064C263.422 32.888 263.03 32.8 262.55 32.8C261.926 32.8 261.302 32.952 260.678 33.256C260.054 33.56 259.446 33.96 258.854 34.456C258.278 34.936 257.742 35.448 257.246 35.992C256.766 36.536 256.342 37.048 255.974 37.528L252.542 37.12C253.006 36.368 253.526 35.624 254.102 34.888C254.694 34.136 255.326 33.432 255.998 32.776C256.67 32.12 257.374 31.544 258.11 31.048C258.862 30.552 259.638 30.16 260.438 29.872C261.238 29.584 262.046 29.44 262.862 29.44C263.934 29.44 264.846 29.656 265.598 30.088C266.35 30.504 266.926 31.08 267.326 31.816C267.742 32.552 267.95 33.392 267.95 34.336C267.95 35.216 267.766 36.024 267.398 36.76C267.046 37.48 266.47 38.112 265.67 38.656C264.886 39.184 263.854 39.592 262.574 39.88C261.294 40.168 259.742 40.312 257.918 40.312C257.006 40.312 256.11 40.256 255.23 40.144C254.366 40.048 253.574 39.896 252.854 39.688C252.134 39.48 251.526 39.224 251.03 38.92C250.534 38.6 250.198 38.232 250.022 37.816L251.366 38.56C251.318 39.648 251.086 40.624 250.67 41.488C250.254 42.352 249.678 43.08 248.942 43.672C248.222 44.28 247.358 44.744 246.35 45.064C245.342 45.384 244.214 45.544 242.966 45.544ZM261.998 27.28C261.502 27.28 261.078 27.112 260.726 26.776C260.39 26.44 260.222 26.024 260.222 25.528C260.222 25.032 260.39 24.608 260.726 24.256C261.078 23.904 261.502 23.728 261.998 23.728C262.478 23.728 262.886 23.904 263.222 24.256C263.574 24.608 263.75 25.032 263.75 25.528C263.75 26.024 263.574 26.44 263.222 26.776C262.886 27.112 262.478 27.28 261.998 27.28ZM270.251 45.52L269.555 42.16C270.691 42.016 271.683 41.84 272.531 41.632C273.379 41.44 274.091 41.168 274.667 40.816C275.243 40.464 275.675 39.984 275.963 39.376C276.251 38.752 276.395 37.952 276.395 36.976C276.395 36.624 276.363 36.272 276.299 35.92C276.235 35.552 276.139 35.216 276.011 34.912C275.883 34.608 275.715 34.36 275.507 34.168C275.315 33.976 275.083 33.88 274.811 33.88C274.523 33.88 274.267 33.984 274.043 34.192C273.819 34.384 273.643 34.632 273.515 34.936C273.387 35.224 273.323 35.52 273.323 35.824C273.323 36.048 273.379 36.24 273.491 36.4C273.603 36.544 273.771 36.656 273.995 36.736C274.219 36.8 274.499 36.832 274.835 36.832C275.219 36.832 275.611 36.792 276.011 36.712C276.427 36.616 276.803 36.488 277.139 36.328L277.235 38.944C276.851 39.248 276.411 39.52 275.915 39.76C275.419 39.984 274.819 40.096 274.115 40.096C273.539 40.096 273.003 40.032 272.507 39.904C272.011 39.76 271.571 39.544 271.187 39.256C270.819 38.968 270.531 38.6 270.323 38.152C270.115 37.688 270.011 37.136 270.011 36.496C270.011 35.712 270.139 34.952 270.395 34.216C270.651 33.48 271.003 32.824 271.451 32.248C271.915 31.656 272.443 31.192 273.035 30.856C273.643 30.504 274.283 30.328 274.955 30.328C275.755 30.328 276.451 30.528 277.043 30.928C277.651 31.328 278.155 31.856 278.555 32.512C278.955 33.152 279.259 33.848 279.467 34.6C279.675 35.352 279.779 36.072 279.779 36.76C279.779 38.568 279.395 40.104 278.627 41.368C277.859 42.632 276.763 43.608 275.339 44.296C273.915 45 272.219 45.408 270.251 45.52ZM281.22 45.544L279.996 42.568C280.844 42.28 281.62 41.944 282.324 41.56C283.044 41.176 283.668 40.752 284.196 40.288C284.724 39.824 285.132 39.32 285.42 38.776C285.708 38.216 285.852 37.616 285.852 36.976C285.852 36.304 285.7 35.568 285.396 34.768C285.092 33.968 284.724 33.152 284.292 32.32L287.436 30.808C287.724 31.304 287.972 31.84 288.18 32.416C288.404 32.976 288.588 33.48 288.732 33.928C288.876 34.376 288.972 34.68 289.02 34.84C289.244 35.608 289.548 36.12 289.932 36.376C290.332 36.632 290.972 36.76 291.852 36.76C292.46 36.76 292.892 36.92 293.148 37.24C293.42 37.544 293.556 37.928 293.556 38.392C293.556 38.888 293.388 39.304 293.052 39.64C292.716 39.96 292.236 40.12 291.612 40.12C290.956 40.12 290.38 40.024 289.884 39.832C289.388 39.64 288.988 39.36 288.684 38.992C288.396 38.624 288.212 38.192 288.132 37.696L289.02 38.2C288.924 39.048 288.644 39.848 288.18 40.6C287.732 41.368 287.148 42.072 286.428 42.712C285.708 43.352 284.9 43.912 284.004 44.392C283.108 44.872 282.18 45.256 281.22 45.544ZM291.641 40.12L291.881 36.76C292.633 36.76 293.209 36.752 293.609 36.736C294.025 36.72 294.337 36.704 294.545 36.688C294.753 36.656 294.929 36.632 295.073 36.616C294.913 36.456 294.705 36.224 294.449 35.92C294.193 35.616 293.961 35.224 293.753 34.744C293.561 34.264 293.465 33.688 293.465 33.016C293.465 32.04 293.713 31.184 294.209 30.448C294.721 29.712 295.409 29.136 296.273 28.72C297.137 28.304 298.105 28.096 299.177 28.096C299.689 28.096 300.161 28.128 300.593 28.192C301.041 28.256 301.489 28.352 301.937 28.48L301.409 31.672C301.089 31.592 300.753 31.528 300.401 31.48C300.049 31.432 299.737 31.408 299.465 31.408C298.937 31.408 298.473 31.496 298.073 31.672C297.689 31.832 297.385 32.064 297.161 32.368C296.953 32.656 296.849 33.008 296.849 33.424C296.849 33.696 296.897 33.952 296.993 34.192C297.105 34.432 297.241 34.648 297.401 34.84C297.561 35.032 297.737 35.2 297.929 35.344C298.121 35.488 298.305 35.608 298.481 35.704C298.673 35.784 298.833 35.84 298.961 35.872C299.361 35.76 299.705 35.664 299.993 35.584C300.297 35.488 300.585 35.4 300.857 35.32C301.145 35.224 301.457 35.104 301.793 34.96C302.129 34.816 302.545 34.64 303.041 34.432L304.121 37.6C302.777 38.256 301.465 38.768 300.185 39.136C298.905 39.504 297.577 39.76 296.201 39.904C294.825 40.048 293.305 40.12 291.641 40.12Z" fill="#F5F5F5"/>
</svg>
