<svg width="24" height="24" viewBox="0 0 24 24" fill="none" xmlns="http://www.w3.org/2000/svg">
<g clip-path="url(#clip0_592_39)">
<path d="M12 19.08C12 19.08 4 14.6 4 9.16001C4 8.19832 4.3332 7.26633 4.9429 6.52261C5.5526 5.7789 6.40114 5.26939 7.34416 5.08079C8.28717 4.89219 9.26641 5.03613 10.1153 5.48814C10.9641 5.94015 11.6301 6.67229 12 7.56001C12.3699 6.67229 13.0359 5.94015 13.8847 5.48814C14.7336 5.03613 15.7128 4.89219 16.6558 5.08079C17.5989 5.26939 18.4474 5.7789 19.0571 6.52261C19.6668 7.26633 20 8.19832 20 9.16001C20 14.6 12 19.08 12 19.08Z" stroke="#F5F5F5" stroke-width="1.5" stroke-linecap="round" stroke-linejoin="round"/>
</g>
<defs>
<clipPath id="clip0_592_39">
<rect width="24" height="24" fill="white"/>
</clipPath>
</defs>
</svg>
