<svg width="24" height="18" viewBox="0 0 24 18" fill="none" xmlns="http://www.w3.org/2000/svg">
<path d="M3.75 4.5C4.57843 4.5 5.25 3.82843 5.25 3C5.25 2.17157 4.57843 1.5 3.75 1.5C2.92157 1.5 2.25 2.17157 2.25 3C2.25 3.82843 2.92157 4.5 3.75 4.5Z" stroke="#F5F5F5" stroke-width="2" stroke-miterlimit="10" stroke-linejoin="round"/>
<path d="M5.25 3H24" stroke="#F5F5F5" stroke-width="2" stroke-miterlimit="10" stroke-linejoin="round"/>
<path d="M3.75 16.5C4.57843 16.5 5.25 15.8284 5.25 15C5.25 14.1716 4.57843 13.5 3.75 13.5C2.92157 13.5 2.25 14.1716 2.25 15C2.25 15.8284 2.92157 16.5 3.75 16.5Z" stroke="#F5F5F5" stroke-width="2" stroke-miterlimit="10" stroke-linejoin="round"/>
<path d="M5.25 15H24" stroke="#F5F5F5" stroke-width="2" stroke-miterlimit="10" stroke-linejoin="round"/>
<path d="M20.25 10.5C21.0784 10.5 21.75 9.82843 21.75 9C21.75 8.17157 21.0784 7.5 20.25 7.5C19.4216 7.5 18.75 8.17157 18.75 9C18.75 9.82843 19.4216 10.5 20.25 10.5Z" stroke="#F5F5F5" stroke-width="2" stroke-miterlimit="10" stroke-linejoin="round"/>
<path d="M18.75 9H0" stroke="#F5F5F5" stroke-width="2" stroke-miterlimit="10" stroke-linejoin="round"/>
<path d="M2.25 3H0" stroke="#F5F5F5" stroke-width="2" stroke-miterlimit="10" stroke-linejoin="round"/>
<path d="M21.75 9H24" stroke="#F5F5F5" stroke-width="2" stroke-miterlimit="10" stroke-linejoin="round"/>
<path d="M2.25 15H0" stroke="#F5F5F5" stroke-width="2" stroke-miterlimit="10" stroke-linejoin="round"/>
</svg>
