<svg width="24" height="24" viewBox="0 0 24 24" fill="none" xmlns="http://www.w3.org/2000/svg">
<path d="M16.5 11.5C16.5 11.3747 16.4851 11.2535 16.4573 11.1366L16.5239 11.3172L16.5 11.3215V11.5ZM16.5 11.5C16.5 12.0215 16.2419 12.4716 15.874 12.8315C15.8368 12.8678 15.7982 12.9035 15.7583 12.9387L16.5 12.3266V11.7406V11.5ZM3.5 15C3.5 15.4732 3.77479 15.853 4.11457 16.1346L3.5 15.701V16.6656V18C3.5 18.4927 3.79797 18.8842 4.15702 19.169C4.52127 19.4579 5.01796 19.6962 5.58856 19.8872C6.73492 20.2709 8.29111 20.5 10 20.5C11.6816 20.5 13.2371 20.2707 14.3894 19.8875C14.9629 19.6968 15.4641 19.459 15.8323 19.1711C16.1939 18.8885 16.5 18.4967 16.5 18V16.6641V15.6978L15.844 16.1619C16.2005 15.88 16.5 15.4914 16.5 15V14.3384L17.0959 14.222C18.0188 14.0416 18.8262 13.7813 19.4167 13.449C19.974 13.1354 20.5 12.6614 20.5 12V10.6625V9.69455L19.8835 10.1321C20.2372 9.84026 20.5 9.46567 20.5 9V7.6625V6.69596L19.8619 7.14768C20.2104 6.86697 20.5 6.48313 20.5 6C20.5 5.50527 20.198 5.11364 19.8376 4.82994C19.4714 4.54159 18.9725 4.30347 18.4004 4.11262C17.2511 3.72916 15.6952 3.5 14 3.5C12.2911 3.5 10.7349 3.72906 9.58856 4.11277C9.01796 4.30376 8.52127 4.54214 8.15702 4.83103C7.79797 5.1158 7.5 5.50729 7.5 6C7.5 6.49271 7.79797 6.8842 8.15702 7.16897C8.52127 7.45786 9.01796 7.69624 9.58856 7.88723C10.7349 8.27094 12.2911 8.5 14 8.5C14.3216 8.5 14.6386 8.49161 14.9491 8.47537L14.7577 9.4192C14.6495 9.36706 14.5379 9.3172 14.4233 9.26964C13.26 8.78683 11.6921 8.5 10 8.5C8.28066 8.5 6.71203 8.78695 5.55447 9.2707C4.97673 9.51213 4.47771 9.81245 4.11558 10.1717C3.75143 10.533 3.5 10.9822 3.5 11.5C3.5 12.0178 3.75143 12.467 4.11558 12.8283C4.13018 12.8428 4.145 12.8572 4.16004 12.8715L3.5 12.3274V13.3875V15ZM14.3894 16.8875C14.6288 16.8079 14.8557 16.7201 15.0655 16.6238C14.5735 16.8529 13.9737 17.0415 13.2954 17.1844C12.2899 17.3961 11.1471 17.5 10 17.5C11.6816 17.5 13.2371 17.2707 14.3894 16.8875ZM18.3894 7.88754C18.5445 7.83596 18.6943 7.78093 18.8377 7.7224C18.1434 8.0097 17.2771 8.21959 16.3203 8.3476C17.0921 8.24219 17.7945 8.08538 18.3894 7.88754Z" stroke="#F5F5F5"/>
</svg>
