<svg width="24" height="24" viewBox="0 0 24 24" fill="none" xmlns="http://www.w3.org/2000/svg">
<path d="M10.8214 6.31109C10.4388 6.31097 10.0679 6.17941 9.7707 5.93842C9.47352 5.69744 9.26815 5.36167 9.18899 4.98734C7.49431 5.60048 6.04687 6.75143 5.0677 8.26442C4.08854 9.77741 3.63148 11.5693 3.7663 13.3664C3.90113 15.1636 4.62043 16.8672 5.81438 18.2172C7.00832 19.5671 8.61129 20.4892 10.3785 20.8426C12.1457 21.1961 13.98 20.9614 15.6013 20.1744C17.2226 19.3875 18.5418 18.0916 19.3574 16.4845C20.1731 14.8774 20.4403 13.0476 20.1183 11.2744C19.7964 9.50119 18.9029 7.88209 17.5744 6.66434C17.2693 6.38701 17.0789 6.00562 17.0405 5.59507C17.0022 5.18453 17.1188 4.77448 17.3673 4.44547C16.3003 3.75655 15.1103 3.28032 13.8626 3.04297C13.8243 3.32347 13.7148 3.58949 13.5446 3.81573L12.1511 5.65121C11.9949 5.85582 11.7938 6.02177 11.5632 6.13619C11.3326 6.25062 11.0788 6.31046 10.8214 6.31109ZM5.86882 13.3704C5.73672 13.3671 5.61112 13.3124 5.51884 13.2178C5.42655 13.1233 5.37489 12.9964 5.37489 12.8643C5.37489 12.7321 5.42655 12.6052 5.51884 12.5107C5.61112 12.4161 5.73672 12.3614 5.86882 12.3582H6.8206C6.9527 12.3614 7.0783 12.4161 7.17058 12.5107C7.26287 12.6052 7.31453 12.7321 7.31453 12.8643C7.31453 12.9964 7.26287 13.1233 7.17058 13.2178C7.0783 13.3124 6.9527 13.3671 6.8206 13.3704H5.86882ZM8.46854 17.0526L7.79545 17.7253C7.74859 17.7731 7.69273 17.811 7.6311 17.8371C7.56948 17.8631 7.50331 17.8766 7.43642 17.8769C7.36953 17.8772 7.30324 17.8642 7.2414 17.8387C7.17955 17.8133 7.12336 17.7758 7.07608 17.7285C7.02881 17.6811 6.99138 17.6249 6.96596 17.563C6.94054 17.5012 6.92763 17.4349 6.92798 17.368C6.92834 17.3011 6.94194 17.2349 6.96801 17.1733C6.99408 17.1117 7.03211 17.0559 7.07988 17.0091L7.75297 16.3363C7.84826 16.243 7.97656 16.191 8.10998 16.1917C8.24341 16.1924 8.37116 16.2457 8.46546 16.3401C8.55976 16.4345 8.61298 16.5623 8.61356 16.6957C8.61414 16.8291 8.56202 16.9574 8.46854 17.0526ZM8.68132 9.50171C8.58629 9.59652 8.45751 9.64974 8.32326 9.64967C8.18902 9.6496 8.0603 9.59625 7.96537 9.50133L7.29265 8.82824C7.24492 8.78138 7.20696 8.72552 7.18094 8.66389C7.15493 8.60227 7.14139 8.5361 7.1411 8.46921C7.14081 8.40232 7.15378 8.33603 7.17925 8.27419C7.20473 8.21234 7.24222 8.15615 7.28954 8.10887C7.33686 8.0616 7.39308 8.02417 7.45495 7.99875C7.51682 7.97333 7.58312 7.96042 7.65001 7.96077C7.7169 7.96113 7.78306 7.97473 7.84466 8.0008C7.90626 8.02687 7.96208 8.06489 8.0089 8.11267L8.68165 8.78576C8.7765 8.88077 8.82973 9.00955 8.82967 9.1438C8.82961 9.27805 8.77625 9.40678 8.68132 9.50171ZM12.5152 19.3059C12.5168 19.3734 12.5049 19.4406 12.4802 19.5034C12.4555 19.5663 12.4185 19.6235 12.3714 19.6718C12.3242 19.7202 12.2679 19.7586 12.2056 19.7848C12.1434 19.811 12.0766 19.8245 12.0091 19.8245C11.9415 19.8245 11.8747 19.811 11.8125 19.7848C11.7503 19.7586 11.6939 19.7202 11.6468 19.6718C11.5996 19.6235 11.5626 19.5663 11.5379 19.5034C11.5132 19.4406 11.5013 19.3734 11.503 19.3059V18.3541C11.5013 18.2866 11.5132 18.2195 11.5379 18.1567C11.5626 18.0938 11.5996 18.0366 11.6468 17.9882C11.6939 17.9399 11.7503 17.9015 11.8125 17.8753C11.8747 17.8491 11.9415 17.8356 12.0091 17.8356C12.0766 17.8356 12.1434 17.8491 12.2056 17.8753C12.2679 17.9015 12.3242 17.9399 12.3714 17.9882C12.4185 18.0366 12.4555 18.0938 12.4802 18.1567C12.5049 18.2195 12.5168 18.2866 12.5152 18.3541V19.3059ZM18.2683 12.3582C18.4004 12.3614 18.526 12.4161 18.6183 12.5107C18.7106 12.6052 18.7623 12.7321 18.7623 12.8643C18.7623 12.9964 18.7106 13.1233 18.6183 13.2178C18.526 13.3124 18.4004 13.3671 18.2683 13.3704H17.3166C17.2491 13.372 17.1819 13.3601 17.1191 13.3354C17.0563 13.3107 16.999 13.2737 16.9507 13.2266C16.9024 13.1794 16.864 13.1231 16.8377 13.0608C16.8115 12.9986 16.798 12.9318 16.798 12.8643C16.798 12.7967 16.8115 12.7299 16.8377 12.6677C16.864 12.6055 16.9024 12.5491 16.9507 12.502C16.999 12.4548 17.0563 12.4178 17.1191 12.3931C17.1819 12.3684 17.2491 12.3565 17.3166 12.3582H18.2683ZM15.5595 8.52941L16.2326 7.85669C16.2794 7.80896 16.3353 7.771 16.3969 7.74498C16.4586 7.71897 16.5247 7.70543 16.5916 7.70514C16.6585 7.70485 16.7248 7.71782 16.7866 7.74329C16.8485 7.76877 16.9047 7.80626 16.9519 7.85358C16.9992 7.9009 17.0367 7.95712 17.0621 8.01899C17.0875 8.08086 17.1004 8.14716 17.1 8.21405C17.0997 8.28094 17.0861 8.3471 17.06 8.4087C17.0339 8.4703 16.9959 8.52612 16.9482 8.57294L16.2751 9.24566C16.2282 9.29339 16.1723 9.33135 16.1107 9.35737C16.0491 9.38338 15.9829 9.39692 15.916 9.39721C15.8491 9.3975 15.7829 9.38453 15.721 9.35906C15.6592 9.33358 15.603 9.29609 15.5557 9.24877C15.5084 9.20145 15.471 9.14523 15.4456 9.08336C15.4201 9.02148 15.4072 8.95519 15.4076 8.8883C15.4079 8.82141 15.4216 8.75525 15.4476 8.69365C15.4737 8.63205 15.5117 8.57623 15.5595 8.52941ZM15.3874 16.207C15.4825 16.1124 15.6113 16.0593 15.7455 16.0593C15.8797 16.0593 16.0084 16.1124 16.1036 16.207L16.7767 16.8801C16.8696 16.9755 16.9211 17.1037 16.9202 17.2368C16.9193 17.37 16.866 17.4974 16.7718 17.5915C16.6777 17.6857 16.5503 17.739 16.4171 17.7399C16.284 17.7408 16.1559 17.6892 16.0605 17.5964L15.3874 16.9233C15.2926 16.8282 15.2394 16.6994 15.2394 16.5651C15.2394 16.4309 15.2926 16.3021 15.3874 16.207ZM12.5152 8.21486V12.0568L13.6695 10.9494C13.717 10.9013 13.7737 10.8633 13.8362 10.8375C13.8986 10.8117 13.9656 10.7986 14.0332 10.7992C14.1008 10.7997 14.1676 10.8137 14.2297 10.8404C14.2917 10.8672 14.3478 10.9061 14.3946 10.9548C14.4414 11.0036 14.478 11.0612 14.5022 11.1243C14.5263 11.1874 14.5376 11.2547 14.5354 11.3223C14.5331 11.3898 14.5173 11.4562 14.489 11.5176C14.4607 11.579 14.4204 11.634 14.3704 11.6796L12.3597 13.6095C12.2881 13.6783 12.1979 13.7245 12.1003 13.7424C12.0027 13.7603 11.9019 13.7491 11.8106 13.7102C11.7193 13.6713 11.6415 13.6064 11.5868 13.5235C11.5321 13.4407 11.503 13.3436 11.5031 13.2444V8.21486C11.5063 8.08276 11.561 7.95716 11.6556 7.86488C11.7502 7.77259 11.877 7.72093 12.0092 7.72093C12.1413 7.72093 12.2682 7.77259 12.3628 7.86488C12.4573 7.95716 12.5119 8.08276 12.5152 8.21486Z" fill="#F5F5F5"/>
<path d="M19.1458 4.95038C19.0175 4.83276 18.8477 4.77093 18.6739 4.77848C18.5 4.78603 18.3362 4.86235 18.2186 4.99065C18.101 5.11895 18.0391 5.28872 18.0467 5.46261C18.0542 5.63649 18.1306 5.80026 18.2589 5.91788C19.8137 7.34356 20.8353 9.25726 21.1547 11.3424C21.474 13.4276 21.0721 15.5594 20.0153 17.3851C18.9585 19.2108 17.3101 20.6211 15.3429 21.3826C13.3757 22.1442 11.2074 22.2115 9.19676 21.5733C7.1861 20.9351 5.45352 19.6297 4.28559 17.873C3.11766 16.1163 2.58436 14.0136 2.77389 11.9126C2.96343 9.81164 3.86444 7.8383 5.32791 6.319C6.79137 4.79969 8.7296 3.82544 10.822 3.5574L10.2996 4.24542C10.1943 4.38401 10.1484 4.55876 10.172 4.73121C10.1955 4.90366 10.2866 5.05969 10.4252 5.16497C10.5638 5.27026 10.7386 5.31617 10.911 5.29261C11.0835 5.26906 11.2395 5.17796 11.3448 5.03937L12.7388 3.20355C12.836 3.07542 12.8828 2.91604 12.8704 2.75567C12.8579 2.59529 12.7869 2.44509 12.671 2.33355L11.009 0.73639C10.8835 0.61576 10.7152 0.549918 10.5412 0.55335C10.3672 0.556782 10.2016 0.629206 10.081 0.75469C9.96038 0.880174 9.89454 1.04844 9.89797 1.22247C9.9014 1.3965 9.97383 1.56203 10.0993 1.68267L10.6904 2.25075C8.29777 2.54859 6.07868 3.65477 4.40063 5.38608C2.72258 7.1174 1.68626 9.36997 1.46331 11.7707C1.24036 14.1715 1.84416 16.5763 3.17469 18.5871C4.50523 20.5978 6.48268 22.0937 8.77953 22.827C11.0764 23.5603 13.5548 23.4871 15.8044 22.6194C18.0539 21.7517 19.9396 20.1417 21.1491 18.0559C22.3586 15.9702 22.8193 13.5338 22.455 11.1504C22.0907 8.76704 20.9232 6.57959 19.1458 4.95038Z" fill="#F5F5F5"/>
</svg>
