<svg width="68" height="94" viewBox="0 0 68 94" fill="none" xmlns="http://www.w3.org/2000/svg">
<path d="M57.6758 10.3071C54.5667 7.19789 50.8756 4.73151 46.8132 3.04879C42.7509 1.36608 38.3969 0.5 33.9999 0.5C29.6028 0.5 25.2488 1.36608 21.1865 3.04879C17.1242 4.73151 13.4331 7.19789 10.324 10.3071C-0.875492 21.5059 -2.66698 39.2261 6.06422 52.439L32.7478 92.8262C32.8844 93.0333 33.0703 93.2032 33.2887 93.3208C33.5072 93.4384 33.7514 93.5 33.9995 93.5C34.2476 93.5 34.4918 93.4384 34.7103 93.3208C34.9287 93.2032 35.1146 93.0333 35.2512 92.8262L61.9356 52.4404C70.6667 39.2261 68.876 21.5059 57.6758 10.3071ZM59.4321 50.7866L33.9995 89.2783L8.56763 50.7851C0.618657 38.7559 2.24902 22.625 12.445 12.4282C18.1617 6.71157 25.9152 3.5 33.9998 3.5C42.0844 3.5 49.8379 6.71157 55.5546 12.4282C65.7507 22.6235 67.3818 38.7559 59.4321 50.7866Z" fill="#9E090F" stroke="#9E090F" stroke-width="0.5"/>
<path d="M40.7993 37.568V37.53L40.7626 37.5198C36.9162 36.4527 34.0524 32.7533 34.0524 28.3213C34.0524 23.0585 38.0705 18.7829 43.003 18.7829C47.9343 18.7829 51.9524 23.0585 51.9524 28.3213C51.9524 32.7527 49.0889 36.4526 45.2433 37.5197L45.2067 37.5299V37.5679V58.8238C45.2067 59.3139 44.9769 59.7861 44.5643 60.1356C44.1514 60.4853 43.5899 60.6829 43.003 60.6829C42.4161 60.6829 41.8546 60.4853 41.4417 60.1356C41.0291 59.7861 40.7993 59.3139 40.7993 58.8238V37.568ZM38.4599 28.3212C38.4599 29.8961 38.9777 31.3495 39.8037 32.4102C40.6296 33.4707 41.7663 34.1414 43.003 34.1414C44.2397 34.1414 45.3761 33.4707 46.2017 32.4102C47.0274 31.3495 47.545 29.8961 47.545 28.3212C47.545 26.7463 47.0274 25.2928 46.2017 24.2321C45.3761 23.1716 44.2397 22.5009 43.003 22.5009C41.7663 22.5009 40.6296 23.1716 39.8037 24.2321C38.9777 25.2928 38.4599 26.7463 38.4599 28.3212Z" fill="#9E090F" stroke="#9E090F" stroke-width="0.1"/>
<path d="M29.545 20.642V20.642C29.5449 20.3991 29.6013 20.1583 29.7113 19.9333C29.8213 19.7083 29.9829 19.5032 30.1873 19.3301C30.3916 19.157 30.6347 19.0193 30.9027 18.9253C31.1708 18.8313 31.4582 18.7828 31.7487 18.7829L31.7487 18.7829C32.0392 18.7828 32.3267 18.8313 32.5947 18.9253C32.8628 19.0193 33.1058 19.157 33.3102 19.3301C33.5146 19.5032 33.6761 19.7083 33.7861 19.9333C33.8961 20.1583 33.9525 20.3991 33.9524 20.642V30.2842C33.9465 31.9557 33.2865 33.5796 32.0736 34.9014C30.8605 36.2234 29.163 37.1685 27.246 37.5871L27.2067 37.5957V37.636V58.8238C27.2067 59.3139 26.9769 59.7861 26.5643 60.1356C26.1514 60.4853 25.5899 60.6829 25.003 60.6829C24.4161 60.6829 23.8546 60.4853 23.4417 60.1356C23.0291 59.7861 22.7993 59.3139 22.7993 58.8238V37.636V37.5957L22.7599 37.5871C20.8428 37.1686 19.145 36.2236 17.9318 34.9016C16.7187 33.5798 16.0585 31.9559 16.0524 30.2843V20.642C16.0524 20.1519 16.2822 19.6798 16.6949 19.3302C17.1077 18.9805 17.6693 18.7829 18.2562 18.7829C18.8431 18.7829 19.4046 18.9805 19.8175 19.3302C20.2301 19.6798 20.4599 20.1519 20.4599 20.642V30.2844L20.4599 30.2845C20.4629 31.3084 20.9452 32.2873 21.7974 33.0074C22.6494 33.7273 23.8021 34.1305 25.0024 34.1305C26.2028 34.1305 27.3555 33.7273 28.2075 33.0074C29.0597 32.2873 29.542 31.3084 29.545 30.2845V30.2844V20.642Z" fill="#9E090F" stroke="#9E090F" stroke-width="0.1"/>
<path d="M25.0025 30.6829H25.0024C24.6128 30.683 24.2273 30.6307 23.8678 30.5294C23.5084 30.428 23.1827 30.2796 22.9091 30.0932C22.6354 29.9068 22.4198 29.6865 22.2733 29.4455C22.127 29.2047 22.0523 28.9478 22.0524 28.6894V28.6893V20.7765C22.0524 20.2553 22.3564 19.7494 22.9093 19.3728C23.4622 18.9961 24.2151 18.7829 25.0024 18.7829C25.7898 18.7829 26.5426 18.9961 27.0956 19.3728C27.6485 19.7494 27.9524 20.2553 27.9524 20.7765V28.6893V28.6894C27.9525 28.9478 27.8779 29.2047 27.7316 29.4455C27.5851 29.6865 27.3695 29.9068 27.0958 30.0932C26.8222 30.2796 26.4965 30.428 26.137 30.5294C25.7776 30.6308 25.392 30.683 25.0025 30.6829Z" fill="#9E090F" stroke="#9E090F" stroke-width="0.1"/>
</svg>
