<svg width="24" height="24" viewBox="0 0 24 24" fill="none" xmlns="http://www.w3.org/2000/svg">
<mask id="path-1-inside-1_592_48" fill="white">
<path d="M20 21V19C20 17.9391 19.5786 16.9217 18.8284 16.1716C18.0783 15.4214 17.0609 15 16 15H8C6.93913 15 5.92172 15.4214 5.17157 16.1716C4.42143 16.9217 4 17.9391 4 19V21"/>
</mask>
<path d="M18 21C18 22.1046 18.8954 23 20 23C21.1046 23 22 22.1046 22 21H18ZM16 15V13V15ZM8 15V13V15ZM4 19H2H4ZM2 21C2 22.1046 2.89543 23 4 23C5.10457 23 6 22.1046 6 21H2ZM22 21V19H18V21H22ZM22 19C22 17.4087 21.3679 15.8826 20.2426 14.7574L17.4142 17.5858C17.7893 17.9609 18 18.4696 18 19H22ZM20.2426 14.7574C19.1174 13.6321 17.5913 13 16 13V17C16.5304 17 17.0391 17.2107 17.4142 17.5858L20.2426 14.7574ZM16 13H8V17H16V13ZM8 13C6.4087 13 4.88258 13.6321 3.75736 14.7574L6.58579 17.5858C6.96086 17.2107 7.46957 17 8 17V13ZM3.75736 14.7574C2.63214 15.8826 2 17.4087 2 19H6C6 18.4696 6.21071 17.9609 6.58579 17.5858L3.75736 14.7574ZM2 19V21H6V19H2Z" fill="#F5F5F5" mask="url(#path-1-inside-1_592_48)"/>
<path d="M12 11C14.2091 11 16 9.20914 16 7C16 4.79086 14.2091 3 12 3C9.79086 3 8 4.79086 8 7C8 9.20914 9.79086 11 12 11Z" stroke="#F5F5F5" stroke-width="2" stroke-linecap="round" stroke-linejoin="round"/>
</svg>
