<svg width="48" height="41" viewBox="0 0 48 41" fill="none" xmlns="http://www.w3.org/2000/svg">
<g clip-path="url(#clip0_1136_1514)">
<path d="M22.4383 27.7448V27.7656H22.7627C22.9248 27.7726 23.0941 27.7725 23.2704 27.7725C23.4678 27.7725 23.6652 27.7726 23.8486 27.7656V27.7448C23.3832 27.7587 22.9107 27.7517 22.4383 27.7448ZM19.2723 27.5365C19.2614 27.5308 19.2492 27.5284 19.237 27.5295C18.8703 27.4878 18.5178 27.4462 18.2075 27.3906V27.4253C18.6376 27.5017 19.1101 27.5642 19.6178 27.6128V27.5712C19.4979 27.5573 19.3851 27.5503 19.2723 27.5365Z" fill="#9E090F"/>
<path d="M29.0389 12.4885C28.7887 12.4895 28.539 12.5081 28.2915 12.5441C27.8058 11.6115 27.0683 10.829 26.1601 10.2826C25.2519 9.73614 24.2083 9.44702 23.144 9.44702C22.0798 9.44702 21.0361 9.73614 20.128 10.2826C19.2198 10.829 18.4823 11.6115 17.9966 12.5441C17.7491 12.5081 17.4993 12.4895 17.2491 12.4885C16.0286 12.4882 14.8494 12.9246 13.9313 13.7166C13.0131 14.5086 12.4184 15.6022 12.258 16.7938C12.0976 17.9854 12.3824 19.1938 13.0593 20.1941C13.7362 21.1943 14.7591 21.9182 15.9376 22.2311V25.2518C16.6484 25.6138 17.4159 25.8556 18.2081 25.967V22.6686C18.2081 22.4844 18.2824 22.3078 18.4146 22.1776C18.5469 22.0473 18.7262 21.9742 18.9133 21.9742C19.1003 21.9742 19.2796 22.0473 19.4119 22.1776C19.5441 22.3078 19.6184 22.4844 19.6184 22.6686V26.1892C20.4011 26.2795 21.3389 26.3489 22.4389 26.3698V22.6686C22.4389 22.4844 22.5132 22.3078 22.6454 22.1776C22.7777 22.0473 22.957 21.9742 23.144 21.9742C23.331 21.9742 23.5104 22.0473 23.6426 22.1776C23.7749 22.3078 23.8492 22.4844 23.8492 22.6686V26.3767C24.9562 26.3628 25.887 26.3003 26.6697 26.217V22.6686C26.6697 22.4844 26.744 22.3078 26.8762 22.1776C27.0084 22.0473 27.1878 21.9742 27.3748 21.9742C27.5618 21.9742 27.7412 22.0473 27.8734 22.1776C28.0057 22.3078 28.0799 22.4844 28.0799 22.6686V26.0017C28.8797 25.9023 29.6515 25.6474 30.3505 25.2518V22.2311C31.529 21.9182 32.5519 21.1943 33.2288 20.1941C33.9057 19.1938 34.1905 17.9854 34.03 16.7938C33.8696 15.6022 33.275 14.5086 32.3568 13.7166C31.4386 12.9246 30.2595 12.4882 29.0389 12.4885ZM30.703 26.71C30.5938 26.6566 30.4722 26.6326 30.3505 26.6406C29.6515 27.0362 28.8797 27.2911 28.0799 27.3906V27.4114C27.6639 27.4947 27.2056 27.5503 26.719 27.5989C26.7023 27.5978 26.6855 27.6001 26.6697 27.6058C25.887 27.6891 24.9562 27.7516 23.8492 27.7655C23.6658 27.7725 23.4684 27.7725 23.271 27.7725C23.0947 27.7725 22.9254 27.7725 22.7633 27.7655H22.4389V27.7586C21.3389 27.7378 20.4011 27.6683 19.6184 27.578V27.6128C19.1107 27.5642 18.6383 27.5017 18.2081 27.4253V27.3558C17.4159 27.2444 16.6484 27.0026 15.9376 26.6406C15.8368 26.6258 15.7339 26.6324 15.636 26.66C15.538 26.6877 15.4472 26.7357 15.3696 26.8009C15.2921 26.866 15.2297 26.9468 15.1866 27.0378C15.1434 27.1287 15.1206 27.2277 15.1197 27.3281V29.8904C15.1197 30.3348 15.1197 31.6959 23.5036 31.6959C25.1276 31.7125 26.7509 31.6197 28.362 31.4181C29.7158 31.2306 31.0979 30.8973 31.0979 29.8904V27.3281C31.098 27.1988 31.061 27.0722 30.9911 26.9629C30.9212 26.8535 30.8214 26.7659 30.703 26.71Z" fill="#9E090F"/>
<path d="M27.1479 27.5434C27.1123 27.5446 27.0769 27.5493 27.0422 27.5573C26.9223 27.5712 26.7954 27.5851 26.6685 27.599V27.6059C26.6842 27.6002 26.7011 27.5979 26.7178 27.599C27.2044 27.5504 27.6627 27.4948 28.0787 27.4115V27.4045C27.7896 27.4531 27.4794 27.5018 27.1479 27.5434Z" fill="#9E090F"/>
<path d="M23.8482 27.7446V27.7658C23.6649 27.7729 23.4675 27.7729 23.27 27.7729C23.0938 27.7729 22.9245 27.7729 22.7623 27.7658H22.438V27.7446C22.9104 27.7517 23.3829 27.7587 23.8482 27.7446Z" fill="#9E090F"/>
<path d="M28.0787 27.4045V27.4115C27.6627 27.4948 27.2044 27.5504 26.7178 27.599C26.7011 27.5979 26.6842 27.6002 26.6685 27.6059V27.599C26.7954 27.5851 26.9223 27.5712 27.0422 27.5573C27.0769 27.5493 27.1123 27.5446 27.1479 27.5434C27.4794 27.5018 27.7896 27.4531 28.0787 27.4045Z" fill="#9E090F"/>
<path d="M19.6178 27.5712V27.6128C19.1101 27.5642 18.6376 27.5017 18.2075 27.4253V27.3906C18.5178 27.4462 18.8703 27.4878 19.237 27.5295C19.2492 27.5284 19.2614 27.5308 19.2723 27.5365C19.3851 27.5503 19.4979 27.5573 19.6178 27.5712Z" fill="#9E090F"/>
<path d="M20.555 35.4248C20.3926 35.4245 20.2318 35.457 20.0826 35.5203C19.9334 35.5836 19.799 35.6764 19.6877 35.7929C17.591 35.3291 15.621 34.4242 13.9127 33.1402C13.8853 33.1133 13.8545 33.09 13.821 33.0708C12.0172 31.6914 10.5569 29.9248 9.55121 27.9056C8.54555 25.8863 8.0211 23.6677 8.01782 21.4186V21.4117C8.01821 19.2046 8.52142 17.0257 9.49038 15.0355C10.4593 13.0453 11.8694 11.2946 13.6166 9.91227C13.7258 9.85312 13.8317 9.78822 13.9339 9.71783L13.9409 9.71089C14.0819 9.62062 14.3005 9.50257 14.5685 9.36369C16.4512 8.35679 20.8653 6.00969 20.5198 1.49603C20.5068 1.32244 20.4276 1.1601 20.2981 1.04161C20.1686 0.923118 19.9985 0.857233 19.8217 0.857178C18.0071 0.92543 16.283 1.65555 14.9845 2.90568C13.5954 4.2945 12.8762 6.26662 12.8409 8.7526C12.8209 8.76479 12.802 8.77874 12.7845 8.79427C11.9504 9.44357 11.185 10.1741 10.4999 10.9747C10.5422 8.73872 10.0627 5.63471 7.53128 3.61398C7.44964 3.54824 7.35392 3.50158 7.25133 3.47753C7.14874 3.45347 7.04194 3.45264 6.93897 3.4751C6.83506 3.49664 6.73739 3.5409 6.65318 3.6046C6.56897 3.6683 6.50036 3.74982 6.45243 3.84314C6.35371 4.04451 4.02679 8.7526 5.63448 11.8288C5.9212 12.3629 6.31745 12.8325 6.79812 13.2078C7.27879 13.5832 7.8334 13.8561 8.4268 14.0093C7.73144 15.3228 7.23268 16.7285 6.94602 18.1827C5.9941 16.2592 4.25948 14.1065 1.22742 13.801C1.12912 13.7918 1.02997 13.8032 0.936417 13.8343C0.842869 13.8654 0.757023 13.9156 0.684469 13.9815C0.611028 14.0446 0.552237 14.1225 0.512087 14.21C0.471936 14.2975 0.451367 14.3924 0.451776 14.4884C0.451776 14.7176 0.458827 18.9465 2.95499 21.0436C3.87318 21.8152 5.04834 22.2257 6.255 22.1964C6.37973 22.1985 6.5045 22.1939 6.62872 22.1825C6.70399 23.8129 7.0346 25.4221 7.60885 26.9531C5.2491 26.2834 2.72968 26.4105 0.451776 27.3142C0.353602 27.3518 0.265253 27.4106 0.193249 27.4863C0.121244 27.562 0.0674204 27.6527 0.0357491 27.7516C0.00187856 27.8508 -0.00810867 27.9564 0.00657644 28.06C0.0212615 28.1637 0.0602167 28.2626 0.120365 28.3488C0.20498 28.4738 2.22165 31.4112 5.02807 31.4389H5.07743C5.8081 31.405 6.52225 31.2132 7.1693 30.8772C7.81634 30.5412 8.38045 30.0692 8.82167 29.4946C9.5787 30.7904 10.5162 31.9755 11.6069 33.0152C9.49859 33.3347 6.33256 34.6332 5.63448 39.4941C5.61952 39.5965 5.62824 39.7008 5.65998 39.7994C5.69173 39.898 5.74568 39.9883 5.81782 40.0635C5.88274 40.1343 5.9622 40.1908 6.05094 40.2291C6.13968 40.2674 6.23567 40.2867 6.33256 40.2857H6.38192C6.43833 40.2788 12.1851 39.8343 13.8563 34.7999C15.5685 35.9426 17.4887 36.749 19.5114 37.1748C19.6138 37.3564 19.7632 37.5081 19.9443 37.6146C20.1254 37.7211 20.332 37.7785 20.5429 37.781C20.7538 37.7835 20.9617 37.7311 21.1454 37.629C21.3291 37.5269 21.4822 37.3787 21.589 37.1996C21.6958 37.0205 21.7527 36.8167 21.7537 36.609C21.7548 36.4012 21.7001 36.1969 21.5951 36.0167C21.4901 35.8365 21.3386 35.6868 21.156 35.5829C20.9733 35.479 20.766 35.4244 20.555 35.4248Z" fill="#9E090F"/>
<path d="M46.2499 27.7516C46.2182 27.6527 46.1644 27.562 46.0924 27.4863C46.0204 27.4106 45.932 27.3518 45.8339 27.3142C43.5559 26.4105 41.0365 26.2834 38.6768 26.9531C39.251 25.4221 39.5816 23.8129 39.6569 22.1825C39.7811 22.1939 39.9059 22.1985 40.0306 22.1964C41.2373 22.2257 42.4125 21.8152 43.3306 21.0436C45.8268 18.9465 45.8339 14.7176 45.8339 14.4884C45.8343 14.3924 45.8137 14.2975 45.7735 14.21C45.7334 14.1225 45.6746 14.0446 45.6012 13.9815C45.5286 13.9156 45.4428 13.8654 45.3492 13.8343C45.2557 13.8032 45.1565 13.7918 45.0582 13.801C42.0262 14.1065 40.2915 16.2592 39.3396 18.1827C39.0529 16.7285 38.5542 15.3228 37.8588 14.0093C38.4522 13.8561 39.0068 13.5832 39.4875 13.2078C39.9682 12.8325 40.3644 12.3629 40.6511 11.8288C42.2588 8.7526 39.9319 4.04451 39.8332 3.84314C39.7853 3.74982 39.7167 3.6683 39.6325 3.6046C39.5482 3.5409 39.4506 3.49664 39.3467 3.4751C39.2437 3.45264 39.1369 3.45347 39.0343 3.47753C38.9317 3.50158 38.836 3.54824 38.7543 3.61398C36.2229 5.63471 35.7434 8.73872 35.7858 10.9747C35.1006 10.1741 34.3352 9.44357 33.5011 8.79427C33.4836 8.77874 33.4648 8.76479 33.4447 8.7526C33.4095 6.26662 32.6902 4.2945 31.3011 2.90568C30.0026 1.65555 28.2785 0.92543 26.4639 0.857178C26.2872 0.857233 26.117 0.923118 25.9875 1.04161C25.858 1.1601 25.7788 1.32244 25.7659 1.49603C25.4203 6.00969 29.8345 8.35679 31.7172 9.36369C31.9851 9.50951 32.2107 9.62062 32.3377 9.70395C32.3377 9.71089 32.3447 9.71089 32.3518 9.71783C32.4539 9.78822 32.5598 9.85312 32.6691 9.91227C34.4163 11.2946 35.8263 13.0453 36.7952 15.0355C37.7642 17.0257 38.2674 19.2046 38.2678 21.4117V21.4186C38.2643 23.6869 37.7307 25.9239 36.7085 27.9565C35.6863 29.9891 34.2028 31.7628 32.3729 33.1402C30.6332 34.4517 28.62 35.3671 26.478 35.8207C26.275 35.6432 26.016 35.5402 25.7447 35.529C25.4268 35.5161 25.1167 35.6281 24.8826 35.8404C24.6486 36.0527 24.5097 36.3478 24.4966 36.6609C24.4835 36.974 24.5973 37.2794 24.8128 37.5099C25.0284 37.7404 25.3281 37.8771 25.646 37.89C25.8898 37.9011 26.1312 37.8377 26.337 37.7084C26.5428 37.5791 26.7029 37.3903 26.7953 37.1678C28.8101 36.7413 30.7228 35.9375 32.4293 34.7999C34.1005 39.8343 39.8473 40.2788 39.9037 40.2857H39.9531C40.05 40.2867 40.1459 40.2674 40.2347 40.2291C40.3234 40.1908 40.4029 40.1343 40.4678 40.0635C40.5399 39.9883 40.5939 39.898 40.6256 39.7994C40.6574 39.7008 40.6661 39.5965 40.6511 39.4941C39.9531 34.6332 36.787 33.3347 34.6787 33.0152C35.7694 31.9755 36.7069 30.7904 37.464 29.4946C37.9052 30.0692 38.4693 30.5412 39.1163 30.8772C39.7634 31.2132 40.4775 31.405 41.2082 31.4389H41.2576C44.064 31.4112 46.0806 28.4738 46.1653 28.3488C46.2254 28.2626 46.2644 28.1637 46.2791 28.06C46.2937 27.9564 46.2837 27.8508 46.2499 27.7516Z" fill="#9E090F"/>
</g>
<defs>
<clipPath id="clip0_1136_1514">
<rect width="48" height="40.2857" fill="white"/>
</clipPath>
</defs>
</svg>
