<svg width="16" height="16" viewBox="0 0 16 16" fill="none" xmlns="http://www.w3.org/2000/svg">
<path d="M0 12.6656V14C0 15.1016 2.65937 16 6 16C9.28438 16 12 15.1016 12 14V12.6641C10.7125 13.575 8.35 14 6 14C3.65 14 1.28906 13.575 0 12.6656ZM10 4C13.2844 4 16 3.10156 16 2C16 0.898438 13.3125 0 10 0C6.65938 0 4 0.898438 4 2C4 3.10156 6.65938 4 10 4ZM0 9.3875V11C0 12.1016 2.65937 13 6 13C9.28438 13 12 12.1016 12 11V9.3875C10.7125 10.45 8.34688 11 6 11C3.65313 11 1.28906 10.45 0 9.3875ZM13 9.73125C14.7906 9.38125 16 8.74375 16 8V6.6625C15.2734 7.17812 14.2109 7.52594 13 7.74062V9.73125ZM6 5C2.65937 5 0 6.11875 0 7.5C0 8.88125 2.65937 10 6 10C9.28438 10 12 8.88281 12 7.5C12 6.11719 9.28438 5 6 5ZM12.85 6.75625C14.7281 6.42188 16 5.75625 16 5V3.6625C14.8906 4.44781 12.9844 4.86969 10.975 4.97125C11.9 5.41875 12.5781 6.01875 12.85 6.75625Z" fill="#F5F5F5"/>
</svg>
